PathFileType	4	(X/Y/Z)	C:/Users/beibeiliu/ov580/test_trc/User3\sequence.37_training_dense_right.trc
DataRate	CameraRate	NumFrames	NumMarkers	Units	OrigDataRate	OrigDataStartFrame	OrigNumFrames
120	120	20	19	mm	120	35	274
Frame#	Time	ThumbCMC			ThumbMCP			ThumbIP			ThumbTip			IndexMCP			IndexPIP			IndexTip			MiddleMCP			MiddlePIP			MiddleTip			RingMCP			RingPIP			RingTip			PinkyMCP			PinkyPIP			PinkyTip			BackHand1			BackHand2			BackHand3	
		X0	Y0	Z0	X1	Y1	Z1	X2	Y2	Z2	X3	Y3	Z3	X4	Y4	Z4	X5	Y5	Z5	X6	Y6	Z6	X7	Y7	Z7	X8	Y8	Z8	X9	Y9	Z9	X10	Y10	Z10	X11	Y11	Z11	X12	Y12	Z12	X13	Y13	Z13	X14	Y14	Z14	X15	Y15	Z15	X16	Y16	Z16	X17	Y17	Z17	X18	Y18	Z18	
34	0.283333	65.9864	2.6828	23.8897	32.376	-5.89994	22.3166	13.8506	-23.611	18.6248	1.98061	-51.5185	12.8908	36.6078	-45.2323	-27.7468	9.43729	-60.2929	-10.9209	18.6313	-50.5467	16.5199	39.4202	-62.4657	-25.1004	22.7807	-75.8419	-2.22377	40.9305	-54.8524	28.8129	54.8627	-73.8876	-11.4771	43.7992	-81.2689	14.2118	57.1485	-53.1632	33.738	70.9991	-81.3148	0.0345745	59.7368	-79.7056	25.1531	69.0682	-53.8571	36.6333	103.603	-38.4251	-11.3156	121.519	-21.887	7.05289	88.3437	-5.27742	-4.10178	
35	0.291667	67.8348	8.45035	24.9077	30.964	-2.24419	24.2902	7.37826	-17.2948	24.659	2.68248	-44.3075	23.2115	25.1105	-42.8023	-23.1301	7.47422	-57.9627	-4.10171	13.2845	-42.4555	24.5498	32.9584	-63.5601	-18.2829	16.1872	-72.4265	7.99408	35.5666	-53.303	35.9304	50.9783	-73.8281	-4.03068	35.1331	-73.9073	24.6269	55.0391	-49.3896	40.3317	61.8766	-79.6399	7.95055	53.0673	-75.3111	30.0453	67.004	-48.9018	40.4527	96.6061	-36.3833	-12.5103	120.291	-21.1708	6.04151	88.4696	-6.0453	-5.71758	
36	0.3	65.918	13.0689	19.2166	35.103	6.51441	25.137	5.24678	-11.1962	23.759	-1.65061	-35.0139	26.9684	25.0085	-38.7896	-20.9755	-0.284862	-47.3251	-1.93471	10.9474	-35.7434	25.7982	26.3767	-54.4703	-16.5893	10.2199	-63.4291	8.57233	27.8671	-40.2463	38.763	43.7272	-66.5232	-2.28531	30.3297	-66.1908	27.4932	48.1032	-41.7263	40.3332	60.4362	-74.6779	10.8289	48.4702	-64.7259	38.1434	61.0565	-42.8066	42.4935	92.1908	-35.7778	-10.8879	113.89	-21.6222	0.071734	88.681	-1.47681	-7.218	
37	0.308333	71.7523	21.2518	16.2948	35.819	18.8188	20.7534	5.18118	1.56565	20.986	-2.38938	-23.0696	25.1806	23.6117	-26.7567	-24.0296	-2.05132	-37.4694	-7.50497	4.00258	-18.999	21.4856	23.7022	-46.4308	-19.418	4.99156	-52.7193	6.55112	24.0567	-32.4883	35.5536	38.0183	-58.2873	-5.26524	23.3424	-55.0562	25.0012	40.4749	-32.7471	37.7643	51.8956	-67.319	11.0635	42.6643	-54.929	35.5575	60.8928	-31.5754	36.9572	91.6472	-32.938	-14.5469	114.53	-23.1945	-3.65516	85.15	0.0729324	-14.4728	
38	0.316667	76.1058	29.7827	6.95955	40.0748	30.088	10.3585	9.18246	15.6374	11.1428	-0.845168	-5.68736	17.8897	20.2211	-17.005	-33.5465	-6.91089	-20.1368	-17.8022	2.10464	-6.28723	11.1754	22.5081	-36.4089	-26.0497	-2.1372	-34.9738	-3.9605	17.2912	-15.1456	27.5094	28.603	-46.0209	-10.5484	16.2573	-44.8843	15.5504	36.4033	-20.5962	30.0313	46.0657	-56.2662	3.7796	35.6937	-47.8296	27.6819	55.4859	-25.714	30.6882	87.7753	-28.8518	-18.122	111.299	-19.0909	-8.86634	88.6871	3.79294	-22.2197	
39	0.325	81.1516	37.7143	-5.1336	43.9405	37.5857	-5.89126	16.5344	26.6282	-4.39589	3.61998	8.75552	3.68806	26.9966	-1.60709	-46.4696	-6.26091	-3.80546	-37.7018	-1.87697	10.6533	-6.09245	17.7456	-21.3637	-39.332	-5.32542	-18.574	-14.251	17.276	-2.87797	14.2868	23.8211	-37.1169	-19.2211	10.5755	-27.0609	5.21747	36.2775	-8.02026	17.5077	37.2885	-43.9863	-6.32023	27.9532	-32.4616	18.4478	54.7739	-16.8189	20.0945	85.3022	-30.1621	-24.7329	112.611	-22.6317	-11.2236	91.6788	6.13569	-31.321	
40	0.333333	89.1101	36.9917	-20.3264	57.0946	45.6605	-22.2492	26.2606	41.716	-23.5925	10.8522	20.8883	-17.2557	33.7685	4.55006	-63.3687	0.972254	6.14313	-55.4546	6.02582	23.1735	-23.8703	22.7039	-15.4288	-51.9507	-2.39159	-3.37608	-35.6391	20.1895	11.339	-3.94762	26.6642	-27.7521	-31.5491	9.31914	-12.8838	-10.3752	36.254	-0.282505	4.89038	32.3565	-38.2776	-14.7261	23.5897	-20.9401	6.26664	51.5459	-11.0691	10.9682	83.6889	-27.9932	-32.9587	111.244	-26.5001	-18.6377	97.0737	1.36989	-36.9728	
41	0.341667	100.697	32.2157	-32.2157	73.5295	50.1174	-41.5914	41.5303	46.4325	-48.3837	19.7142	30.4332	-41.2138	44.848	8.36878	-82.0448	12.4201	17.3773	-77.918	17.2488	35.3791	-51.1282	26.8091	-6.00892	-71.196	4.70337	7.9243	-53.3633	30.8819	18.3074	-24.3058	24.913	-18.1651	-48.7222	10.8867	-0.104572	-32.1931	43.1124	7.62025	-15.2717	31.8972	-30.0001	-29.7685	23.1759	-5.88437	-14.2593	48.7953	-4.3211	-3.60443	86.0474	-31.6767	-40.3152	106.009	-30.3117	-23.3395	104.817	-0.832123	-47.2729	
42	0.35	110.61	25.3958	-43.5014	90.2545	45.5399	-57.9214	59.5691	50.3318	-72.0918	33.6186	37.9007	-68.1838	55.5437	4.98923	-98.14	29.6533	19.4621	-99.9823	35.35	37.6748	-72.8273	36.8454	-5.02217	-88.8802	16.1604	13.9951	-78.7606	40.455	24.8259	-46.8202	34.998	-11.2611	-69.9945	18.3157	8.52005	-54.0887	44.2758	15.9842	-36.5985	32.6026	-24.3323	-48.5197	21.1322	-1.73087	-35.9785	49.747	2.04131	-21.0111	87.5742	-33.8743	-49.4874	104.579	-36.1311	-29.6437	108.998	-7.81075	-57.0875	
43	0.358333	123.406	20.8408	-50.9669	106.665	38.0683	-70.3174	82.8623	46.5153	-88.0048	57.9354	41.1524	-89.8014	76.1346	-0.0296865	-108.845	50.023	23.4072	-118.634	56.8414	37.7987	-91.913	57.2268	-6.858	-103.634	35.4535	19.2423	-102.203	53.4482	27.1366	-68.7109	47.1917	-14.1174	-87.7763	30.3727	12.0267	-76.9982	51.1968	13.8402	-53.1837	38.2717	-22.4653	-68.2677	29.5237	2.84085	-61.2142	50.7038	5.67943	-39.6145	92.0863	-36.7622	-56.3299	106.305	-40.3732	-34.5958	117.181	-17.2732	-57.2171	
44	0.366667	128.57	11.3966	-54.952	122.139	29.5972	-76.8325	102.763	38.3914	-99.2946	77.1488	35.9605	-107.441	93.3616	-8.48732	-122.612	73.9092	12.7102	-134.434	75.1117	28.543	-103.282	73.8582	-12.8174	-118.096	52.9218	11.4156	-117.977	68.5654	21.5209	-83.2312	58.5203	-17.5731	-102.836	44.6157	8.93797	-96.8065	61.4772	12.4579	-70.2404	53.1653	-23.0401	-82.757	39.7401	1.12164	-79.3075	58.0704	8.14438	-59.1509	96.2267	-43.3438	-63.8622	108.163	-42.8681	-32.026	126.753	-22.9057	-58.7593	
45	0.375	137.18	6.21963	-55.0093	133.529	22.021	-83.5175	119.972	29.5221	-110.34	93.1448	25.5245	-121.851	112.838	-21.527	-120.686	96.9318	-1.1672	-143.477	95.038	20.263	-115.686	94.1808	-24.2587	-124.429	76.116	0.356833	-134.409	81.1728	13.9767	-95.5328	78.6357	-27.6673	-108.531	60.8931	-0.481996	-111.865	73.3862	9.13721	-83.226	62.2933	-31.7849	-93.6667	53.7558	-8.59302	-97.8289	61.4128	5.95359	-69.5123	106.249	-45.75	-62.6105	110.339	-48.2648	-30.3568	136.055	-28.0419	-60.2095	
46	0.383333	146.699	5.42351	-53.6527	143.25	16.4761	-81.7048	132.241	22.0077	-113.835	110.629	16.6852	-122.441	133.459	-28.4586	-121.31	115.809	-16.2411	-146.11	106.625	10.6178	-124.162	111.575	-34.9229	-124.187	94.7157	-10.4224	-139.445	93.4197	6.38729	-104.083	95.4579	-37.1386	-112.004	77.5759	-11.0151	-120.903	85.0958	2.12281	-91.4612	75.5281	-41.6041	-99.3516	64.6457	-14.7573	-104.284	73.6614	0.195914	-83.5224	110.822	-52.5337	-63.2902	115.285	-50.9181	-32.9626	141.435	-33.5961	-54.3574	
47	0.391667	150.984	2.3184	-45.4433	153.588	16.7292	-78.6884	146.27	20.3324	-108.193	122.793	7.93985	-120.393	151.271	-31.885	-115.224	133.367	-24.4311	-144.442	122.931	4.99654	-133.765	127.114	-42.6299	-122.558	110.444	-17.789	-138.816	107.175	2.66708	-104.537	111.077	-45.084	-110.38	90.4626	-21.145	-121.762	94.7235	-4.58428	-95.6367	93.9752	-48.7471	-98.5841	84.5173	-26.7324	-110.604	83.1691	-5.90764	-90.4427	125.194	-57.2798	-56.2778	127.329	-51.056	-25.9137	152.755	-33.358	-45.3909	
48	0.4	157.472	6.25883	-41.5532	159.497	20.0467	-71.8048	153.24	20.7427	-104.54	134.578	11.9107	-118.483	161.125	-33.5692	-114.306	152.905	-23.3918	-141.018	131.041	0.985558	-134.609	141.094	-42.4883	-119.023	125.964	-20.6555	-137.413	115.362	1.07018	-104.67	126.67	-45.6337	-109.857	106.384	-27.385	-123.759	103.975	-8.28473	-90.9921	107.761	-52.4802	-94.9902	92.1338	-33.7885	-110.656	91.3606	-11.4684	-91.954	135.503	-55.7709	-51.3217	134.364	-53.4014	-24.7682	161.177	-31.48	-41.4248	
49	0.408333	160.394	7.82468	-37.7593	163.642	21.4619	-70.0663	159.608	27.5048	-96.3945	142.145	13.8784	-115.451	172.06	-26.0698	-105.495	159.826	-16.209	-136.595	139.155	7.2947	-128.13	158.01	-35.374	-111.583	133.891	-18.279	-133.107	122.904	1.12198	-103.629	136.926	-45.3312	-107.873	120.738	-25.1436	-122.695	112.662	-7.54135	-91.0835	123.835	-50.6252	-92.3697	105.958	-35.0267	-109.391	99.7522	-13.7351	-92.0009	147.24	-53.8211	-50.7074	143.78	-48.3389	-22.5671	169.055	-28.1253	-36.0537	
50	0.416667	165.649	17.2528	-34.3905	165.981	32.2098	-62.9255	163.7	35.0356	-90.5921	150.281	20.2958	-113.938	187.962	-15.6038	-101.56	176.985	-6.28589	-131.9	152.501	13.9085	-125.953	172.442	-26.3662	-112.476	154.092	-10.0091	-130.696	130.73	2.01644	-100.623	152.942	-40.0184	-104.933	134.512	-22.8033	-120.827	121.973	-7.18775	-89.9151	138.619	-46.6757	-92.9065	125.644	-29.707	-110.078	109.148	-16.1673	-88.4421	161.862	-46.0961	-50.2217	154.868	-45.3958	-20.4668	174.706	-20.6707	-30.7024	
51	0.425	167.798	26.5806	-24.7126	171.048	37.4063	-57.7487	169.683	41.9042	-84.2517	162.016	28.0889	-107.809	202.273	-2.3937	-89.5681	196.468	5.14603	-121.123	169.118	26.5087	-117.673	191.049	-15.1052	-100.723	174.399	-0.0320487	-125.725	147.578	13.5168	-95.3854	173.238	-31.293	-99.3887	154.354	-11.0612	-118.019	137.354	-1.87002	-89.6723	159.613	-39.0094	-92.1587	143.377	-27.9904	-108.916	126.555	-9.86828	-85.9083	176.202	-38.0709	-45.3569	162.954	-41.7002	-16.1785	186.096	-10.0127	-23.9633	
52	0.433333	172.137	31.7063	-20.5752	175.09	46.4801	-51.3168	178.877	47.9592	-80.0428	175.226	38.1698	-103.159	217.194	8.67078	-83.1724	213.176	20.8731	-112.919	180.15	31.5664	-108.043	208.451	-5.65819	-95.8142	193.128	10.9421	-118.361	161.648	16.0342	-93.1565	193.691	-18.1994	-95.3593	174.359	-5.41616	-113.941	152.367	4.18752	-88.2215	178.353	-31.5273	-86.4664	164.694	-18.0178	-106.535	143.903	-5.60587	-87.8656	187.181	-32.4877	-38.6232	171.622	-31.5614	-9.57626	190.529	-3.25771	-18.3001	
53	0.441667	172.542	34.6452	-17.264	179.738	51.8355	-46.3135	186.157	55.0521	-73.422	188.695	39.6448	-100.804	226.732	16.3114	-69.6619	228.697	23.0413	-101	197.475	34.5891	-102.887	221.817	3.67531	-84.373	204.261	15.6865	-112.915	173.614	19.1768	-91.2553	206.845	-14.2154	-90.3719	189.357	-2.28772	-110.153	166.057	11.0261	-86.1599	190.88	-29.0752	-82.466	178.618	-17.6613	-104.525	157.387	-1.92748	-89.6175	193.461	-27.5581	-30.9465	176.416	-28.8298	-7.61445	195.811	3.8298	-11.1326	
